<mxfile host="65bd71144e">
    <diagram name="Pagina-1" id="lNDJFYn427mudqlOPwvy">
        <mxGraphModel dx="3350" dy="1880" grid="1" gridSize="10" guides="1" tooltips="1" connect="1" arrows="1" fold="1" page="0" pageScale="1" pageWidth="827" pageHeight="1169" background="none" math="0" shadow="0">
            <root>
                <mxCell id="0"/>
                <mxCell id="1" parent="0"/>
                <mxCell id="0vU6HpzaP2dOYKOZtlzn-4" value="&lt;div&gt;&lt;br&gt;&lt;/div&gt;&lt;div&gt;&lt;br&gt;&lt;/div&gt;" style="rounded=1;whiteSpace=wrap;html=1;fontSize=32;sketch=1;curveFitting=1;jiggle=2;" parent="1" vertex="1">
                    <mxGeometry x="-210" y="280" width="2080" height="1200" as="geometry"/>
                </mxCell>
                <mxCell id="0vU6HpzaP2dOYKOZtlzn-1" value="&lt;div style=&quot;font-size: 32px;&quot;&gt;schema del Sito&lt;/div&gt;&lt;div&gt;&lt;br&gt;&lt;/div&gt;" style="text;html=1;strokeColor=none;fillColor=none;align=center;verticalAlign=middle;whiteSpace=wrap;rounded=1;sketch=1;curveFitting=1;jiggle=2;" parent="1" vertex="1">
                    <mxGeometry x="890" y="190" width="320" height="60" as="geometry"/>
                </mxCell>
                <mxCell id="0vU6HpzaP2dOYKOZtlzn-2" value="login" style="rounded=1;whiteSpace=wrap;html=1;fontSize=32;sketch=1;curveFitting=1;jiggle=2;" parent="1" vertex="1">
                    <mxGeometry x="70" y="510" width="120" height="60" as="geometry"/>
                </mxCell>
                <mxCell id="0vU6HpzaP2dOYKOZtlzn-5" value="" style="shape=flexArrow;endArrow=classic;html=1;rounded=1;fontSize=32;startArrow=none;sketch=1;curveFitting=1;jiggle=2;" parent="1" source="0vU6HpzaP2dOYKOZtlzn-6" target="0vU6HpzaP2dOYKOZtlzn-3" edge="1">
                    <mxGeometry width="50" height="50" relative="1" as="geometry">
                        <mxPoint x="230" y="620" as="sourcePoint"/>
                        <mxPoint x="270" y="350" as="targetPoint"/>
                    </mxGeometry>
                </mxCell>
                <mxCell id="0vU6HpzaP2dOYKOZtlzn-8" value="" style="shape=flexArrow;endArrow=none;html=1;rounded=1;fontSize=32;exitX=0.336;exitY=0.993;exitDx=0;exitDy=0;exitPerimeter=0;sketch=1;curveFitting=1;jiggle=2;" parent="1" source="0vU6HpzaP2dOYKOZtlzn-2" target="0vU6HpzaP2dOYKOZtlzn-6" edge="1">
                    <mxGeometry width="50" height="50" relative="1" as="geometry">
                        <mxPoint x="360" y="640" as="sourcePoint"/>
                        <mxPoint x="430" y="330" as="targetPoint"/>
                    </mxGeometry>
                </mxCell>
                <mxCell id="0vU6HpzaP2dOYKOZtlzn-6" value="&lt;font style=&quot;&quot;&gt;&lt;font style=&quot;font-size: 21px;&quot;&gt;se non ancora utente&lt;/font&gt;&lt;br&gt;&lt;/font&gt;" style="text;html=1;strokeColor=none;fillColor=none;align=center;verticalAlign=middle;whiteSpace=wrap;rounded=1;fontSize=32;sketch=1;curveFitting=1;jiggle=2;" parent="1" vertex="1">
                    <mxGeometry x="-20" y="870" width="160" height="30" as="geometry"/>
                </mxCell>
                <mxCell id="0vU6HpzaP2dOYKOZtlzn-13" style="edgeStyle=orthogonalEdgeStyle;rounded=1;orthogonalLoop=1;jettySize=auto;html=1;exitX=1;exitY=0.5;exitDx=0;exitDy=0;fontSize=22;sketch=1;curveFitting=1;jiggle=2;" parent="1" source="0vU6HpzaP2dOYKOZtlzn-10" target="0vU6HpzaP2dOYKOZtlzn-12" edge="1">
                    <mxGeometry relative="1" as="geometry"/>
                </mxCell>
                <mxCell id="0vU6HpzaP2dOYKOZtlzn-14" value="&lt;font style=&quot;font-size: 42px;&quot; color=&quot;#CC0000&quot;&gt;DATABASE&lt;/font&gt;" style="rounded=1;whiteSpace=wrap;html=1;fontSize=22;sketch=1;curveFitting=1;jiggle=2;" parent="1" vertex="1">
                    <mxGeometry x="730" y="1590" width="480" height="150" as="geometry"/>
                </mxCell>
                <mxCell id="0vU6HpzaP2dOYKOZtlzn-17" value="" style="endArrow=classic;html=1;rounded=1;fontSize=42;fontColor=#CC0000;exitX=0.669;exitY=1.017;exitDx=0;exitDy=0;exitPerimeter=0;entryX=0;entryY=0;entryDx=0;entryDy=0;sketch=1;curveFitting=1;jiggle=2;" parent="1" source="0vU6HpzaP2dOYKOZtlzn-2" target="0vU6HpzaP2dOYKOZtlzn-14" edge="1">
                    <mxGeometry width="50" height="50" relative="1" as="geometry">
                        <mxPoint x="750" y="990" as="sourcePoint"/>
                        <mxPoint x="800" y="940" as="targetPoint"/>
                    </mxGeometry>
                </mxCell>
                <mxCell id="0vU6HpzaP2dOYKOZtlzn-24" value="&lt;div&gt;CONTROLLO &lt;br&gt;&lt;/div&gt;&lt;div&gt;CREDENZIALI&lt;/div&gt;" style="edgeLabel;html=1;align=center;verticalAlign=middle;resizable=0;points=[];fontSize=22;fontColor=#FFFFFF;sketch=1;curveFitting=1;jiggle=2;rounded=1;" parent="0vU6HpzaP2dOYKOZtlzn-17" vertex="1" connectable="0">
                    <mxGeometry x="-0.0841" y="3" relative="1" as="geometry">
                        <mxPoint as="offset"/>
                    </mxGeometry>
                </mxCell>
                <mxCell id="0vU6HpzaP2dOYKOZtlzn-22" value="" style="endArrow=classic;html=1;rounded=1;fontSize=42;fontColor=#CC0000;exitX=1;exitY=0.25;exitDx=0;exitDy=0;entryX=-0.002;entryY=0.378;entryDx=0;entryDy=0;entryPerimeter=0;sketch=1;curveFitting=1;jiggle=2;" parent="1" source="0vU6HpzaP2dOYKOZtlzn-3" target="0vU6HpzaP2dOYKOZtlzn-14" edge="1">
                    <mxGeometry width="50" height="50" relative="1" as="geometry">
                        <mxPoint x="420.28" y="731.02" as="sourcePoint"/>
                        <mxPoint x="630" y="1220" as="targetPoint"/>
                    </mxGeometry>
                </mxCell>
                <mxCell id="0vU6HpzaP2dOYKOZtlzn-23" value="&lt;font style=&quot;font-size: 22px;&quot;&gt;&lt;font&gt;NUOVO UTENTE&lt;/font&gt;&lt;br&gt;&lt;/font&gt;" style="edgeLabel;html=1;align=center;verticalAlign=middle;resizable=0;points=[];fontSize=42;fontColor=#FFFFFF;sketch=1;curveFitting=1;jiggle=2;rounded=1;" parent="0vU6HpzaP2dOYKOZtlzn-22" vertex="1" connectable="0">
                    <mxGeometry x="-0.213" y="-6" relative="1" as="geometry">
                        <mxPoint as="offset"/>
                    </mxGeometry>
                </mxCell>
                <mxCell id="0vU6HpzaP2dOYKOZtlzn-30" style="edgeStyle=orthogonalEdgeStyle;rounded=1;orthogonalLoop=1;jettySize=auto;html=1;fontSize=22;fontColor=#000000;sketch=1;curveFitting=1;jiggle=2;" parent="1" source="0vU6HpzaP2dOYKOZtlzn-29" target="0vU6HpzaP2dOYKOZtlzn-4" edge="1">
                    <mxGeometry relative="1" as="geometry"/>
                </mxCell>
                <mxCell id="0vU6HpzaP2dOYKOZtlzn-29" value="&lt;div&gt;dottore&lt;br&gt;&lt;/div&gt;" style="shape=mxgraph.cisco.computers_and_peripherals.pc;html=1;pointerEvents=1;dashed=0;fillColor=#036897;strokeColor=#ffffff;strokeWidth=2;verticalLabelPosition=bottom;verticalAlign=top;align=center;outlineConnect=0;fontSize=22;fontColor=#000000;sketch=1;curveFitting=1;jiggle=2;rounded=1;" parent="1" vertex="1">
                    <mxGeometry x="180" width="78" height="70" as="geometry"/>
                </mxCell>
                <mxCell id="0vU6HpzaP2dOYKOZtlzn-3" value="regitrazione" style="rounded=1;whiteSpace=wrap;html=1;fontSize=32;sketch=1;curveFitting=1;jiggle=2;shadow=0;" parent="1" vertex="1">
                    <mxGeometry x="-120" y="1190" width="240" height="60" as="geometry"/>
                </mxCell>
                <mxCell id="2" value="Root page" style="text;html=1;align=center;verticalAlign=middle;resizable=0;points=[];autosize=1;strokeColor=none;fillColor=none;fontSize=37;fontFamily=Architects Daughter;fontColor=#FFFFFF;sketch=1;hachureGap=4;jiggle=2;curveFitting=1;fontSource=https%3A%2F%2Ffonts.googleapis.com%2Fcss%3Ffamily%3DArchitects%2BDaughter;fontStyle=1" vertex="1" parent="1">
                    <mxGeometry x="-210" y="240" width="200" height="60" as="geometry"/>
                </mxCell>
                <mxCell id="6" value="&lt;div&gt;&lt;br&gt;&lt;/div&gt;&lt;div&gt;&lt;br&gt;&lt;/div&gt;" style="rounded=1;whiteSpace=wrap;html=1;fontSize=32;sketch=1;curveFitting=1;jiggle=2;" vertex="1" parent="1">
                    <mxGeometry x="550" y="510" width="1150" height="650" as="geometry"/>
                </mxCell>
                <mxCell id="0vU6HpzaP2dOYKOZtlzn-11" value="" style="endArrow=classic;html=1;rounded=1;fontSize=12;exitX=1;exitY=0.5;exitDx=0;exitDy=0;entryX=0;entryY=0.5;entryDx=0;entryDy=0;sketch=1;curveFitting=1;jiggle=2;" parent="1" source="0vU6HpzaP2dOYKOZtlzn-2" target="0vU6HpzaP2dOYKOZtlzn-10" edge="1">
                    <mxGeometry width="50" height="50" relative="1" as="geometry">
                        <mxPoint x="670" y="970" as="sourcePoint"/>
                        <mxPoint x="720" y="920" as="targetPoint"/>
                    </mxGeometry>
                </mxCell>
                <mxCell id="0vU6HpzaP2dOYKOZtlzn-19" value="" style="endArrow=classic;html=1;rounded=1;fontSize=42;fontColor=#CC0000;exitX=0.75;exitY=1;exitDx=0;exitDy=0;entryX=0.5;entryY=0;entryDx=0;entryDy=0;sketch=1;curveFitting=1;jiggle=2;" parent="1" source="0vU6HpzaP2dOYKOZtlzn-10" target="0vU6HpzaP2dOYKOZtlzn-14" edge="1">
                    <mxGeometry width="50" height="50" relative="1" as="geometry">
                        <mxPoint x="750" y="1220" as="sourcePoint"/>
                        <mxPoint x="747.5" y="800" as="targetPoint"/>
                    </mxGeometry>
                </mxCell>
                <mxCell id="0vU6HpzaP2dOYKOZtlzn-26" value="&lt;div&gt;richiesta&lt;/div&gt;&lt;div&gt;paziente da&lt;/div&gt;&lt;div&gt;&amp;nbsp;esaminare&lt;br&gt;&lt;/div&gt;" style="edgeLabel;html=1;align=center;verticalAlign=middle;resizable=0;points=[];fontSize=22;fontColor=#FFFFFF;sketch=1;curveFitting=1;jiggle=2;rounded=1;" parent="0vU6HpzaP2dOYKOZtlzn-19" vertex="1" connectable="0">
                    <mxGeometry x="-0.1585" relative="1" as="geometry">
                        <mxPoint x="31" y="133" as="offset"/>
                    </mxGeometry>
                </mxCell>
                <mxCell id="0vU6HpzaP2dOYKOZtlzn-21" value="" style="endArrow=classic;html=1;rounded=1;fontSize=42;fontColor=#CC0000;exitX=0.605;exitY=1.019;exitDx=0;exitDy=0;entryX=1;entryY=0;entryDx=0;entryDy=0;exitPerimeter=0;sketch=1;curveFitting=1;jiggle=2;" parent="1" source="0vU6HpzaP2dOYKOZtlzn-12" target="0vU6HpzaP2dOYKOZtlzn-14" edge="1">
                    <mxGeometry width="50" height="50" relative="1" as="geometry">
                        <mxPoint x="902.5" y="800" as="sourcePoint"/>
                        <mxPoint x="870" y="1220" as="targetPoint"/>
                    </mxGeometry>
                </mxCell>
                <mxCell id="0vU6HpzaP2dOYKOZtlzn-28" value="&lt;div&gt;filtro&lt;/div&gt;&lt;div&gt;per ricerca&lt;/div&gt;&lt;div&gt;record&lt;br&gt;&lt;/div&gt;" style="edgeLabel;html=1;align=center;verticalAlign=middle;resizable=0;points=[];fontSize=22;fontColor=#FFFFFF;sketch=1;curveFitting=1;jiggle=2;rounded=1;" parent="0vU6HpzaP2dOYKOZtlzn-21" vertex="1" connectable="0">
                    <mxGeometry x="0.1238" y="1" relative="1" as="geometry">
                        <mxPoint x="-20" y="42" as="offset"/>
                    </mxGeometry>
                </mxCell>
                <mxCell id="10" style="edgeStyle=none;rounded=1;sketch=1;hachureGap=4;jiggle=2;curveFitting=1;html=1;exitX=1;exitY=0.5;exitDx=0;exitDy=0;fontFamily=Architects Daughter;fontSource=https%3A%2F%2Ffonts.googleapis.com%2Fcss%3Ffamily%3DArchitects%2BDaughter;fontSize=21;fontColor=#FFFFFF;" edge="1" parent="1" source="0vU6HpzaP2dOYKOZtlzn-10" target="0vU6HpzaP2dOYKOZtlzn-12">
                    <mxGeometry relative="1" as="geometry"/>
                </mxCell>
                <mxCell id="0vU6HpzaP2dOYKOZtlzn-10" value="&lt;div&gt;home page dottore&lt;/div&gt;&lt;div style=&quot;font-size: 22px;&quot;&gt;&lt;font style=&quot;font-size: 22px;&quot;&gt;seleziona paziente da lista&lt;br&gt;&lt;/font&gt;&lt;/div&gt;" style="rounded=1;whiteSpace=wrap;html=1;fontSize=32;sketch=1;curveFitting=1;jiggle=2;" parent="1" vertex="1">
                    <mxGeometry x="660" y="590" width="310" height="200" as="geometry"/>
                </mxCell>
                <mxCell id="0vU6HpzaP2dOYKOZtlzn-12" value="&lt;div&gt;home page paziente&lt;br&gt;&lt;/div&gt;&lt;div style=&quot;font-size: 22px;&quot;&gt;&lt;font style=&quot;font-size: 22px;&quot;&gt;dashboard con risultati dei form&lt;br&gt;&lt;/font&gt;&lt;/div&gt;" style="rounded=1;whiteSpace=wrap;html=1;fontSize=32;sketch=1;curveFitting=1;jiggle=2;" parent="1" vertex="1">
                    <mxGeometry x="1070" y="590" width="310" height="200" as="geometry"/>
                </mxCell>
                <mxCell id="7" value="Pagina profilo medico" style="text;html=1;align=center;verticalAlign=middle;resizable=0;points=[];autosize=1;strokeColor=none;fillColor=none;fontSize=37;fontFamily=Architects Daughter;fontColor=#FFFFFF;sketch=1;hachureGap=4;jiggle=2;curveFitting=1;fontSource=https%3A%2F%2Ffonts.googleapis.com%2Fcss%3Ffamily%3DArchitects%2BDaughter;fontStyle=1" vertex="1" parent="1">
                    <mxGeometry x="635" y="480" width="390" height="60" as="geometry"/>
                </mxCell>
            </root>
        </mxGraphModel>
    </diagram>
</mxfile>